<svg xmlns="http://www.w3.org/2000/svg" width="14" height="12" viewBox="0 0 14 12">
  <path id="archive" d="M.875,13.393a.865.865,0,0,0,.875.857h10.5a.865.865,0,0,0,.875-.857V5.679H.875ZM5.25,7.714a.326.326,0,0,1,.328-.322H8.422a.326.326,0,0,1,.328.322v.214a.326.326,0,0,1-.328.322H5.578a.326.326,0,0,1-.328-.322ZM13.125,2.25H.875A.865.865,0,0,0,0,3.107V4.393a.434.434,0,0,0,.438.429H13.563A.434.434,0,0,0,14,4.393V3.107A.865.865,0,0,0,13.125,2.25Z" transform="translate(0 -2.25)" fill="#212121"/>
</svg>
