<svg xmlns="http://www.w3.org/2000/svg" width="18.667" height="16" viewBox="0 0 18.667 16">
  <path id="archive" d="M1.167,17.107A1.153,1.153,0,0,0,2.333,18.25h14A1.153,1.153,0,0,0,17.5,17.107V6.821H1.167ZM7,9.536a.435.435,0,0,1,.438-.429H11.23a.435.435,0,0,1,.438.429v.286a.435.435,0,0,1-.438.429H7.438A.435.435,0,0,1,7,9.822ZM17.5,2.25H1.167A1.153,1.153,0,0,0,0,3.393V5.107a.579.579,0,0,0,.583.571h17.5a.579.579,0,0,0,.583-.571V3.393A1.153,1.153,0,0,0,17.5,2.25Z" transform="translate(0 -2.25)" fill="#fff"/>
</svg>
