<svg xmlns="http://www.w3.org/2000/svg" width="17.004" height="17" viewBox="0 0 17.004 17">
  <path id="__TEMP__SVG__" d="M16.68,9.229a1.065,1.065,0,0,1-.781.323,1.051,1.051,0,0,1-.772-.315l-.249-.249v6.949a1.032,1.032,0,0,1-.307.746,1.014,1.014,0,0,1-.756.315H10.628V12.223a.539.539,0,0,0-.531-.531H6.908a.539.539,0,0,0-.531.531V17H3.188a1.014,1.014,0,0,1-.756-.315,1.031,1.031,0,0,1-.307-.747V8.989l-.249.249a1.051,1.051,0,0,1-.772.315,1.065,1.065,0,0,1-.781-.323A1.062,1.062,0,0,1,0,8.45a1.048,1.048,0,0,1,.315-.771L7.688.315A1.053,1.053,0,0,1,8.5,0a1.053,1.053,0,0,1,.814.315l7.373,7.363A1.048,1.048,0,0,1,17,8.45a1.062,1.062,0,0,1-.324.78Z" transform="translate(0 0.001)" fill="#fff"/>
</svg>
