<svg xmlns="http://www.w3.org/2000/svg" xmlns:xlink="http://www.w3.org/1999/xlink" width="18" height="16" viewBox="0 0 18 16">
  <defs>
    <clipPath id="clip-path">
      <path id="heart" d="M17.649,4.422a7.353,7.353,0,0,1-1.308,6.825,19.551,19.551,0,0,1-3.252,3.333c-1.07.967-3.464,2.879-4.1,2.932a5.209,5.209,0,0,1-1.635-1.036c-2.5-1.845-5.2-4.09-6.562-6.544C-.352,7.574-.354,4.66,1.428,2.853a5.379,5.379,0,0,1,7.562.486,5.09,5.09,0,0,1,1.751-1.41,5.336,5.336,0,0,1,6.908,2.493Z" transform="translate(237 740.489)" fill="#6a6a6a"/>
    </clipPath>
  </defs>
  <g id="Mask_Group_2" data-name="Mask Group 2" transform="translate(-237 -742)" opacity="0.7" clip-path="url(#clip-path)">
    <path id="__TEMP__SVG__" d="M14.8,2.947a4.839,4.839,0,0,0-3.855,1.9,4.838,4.838,0,0,0-3.856-1.9A4.907,4.907,0,0,0,2.2,7.834a8.774,8.774,0,0,0,2.52,5.984l.241.3a41.359,41.359,0,0,0,5.647,4.726.581.581,0,0,0,.674,0,41.4,41.4,0,0,0,5.647-4.726l.241-.3a8.779,8.779,0,0,0,2.52-5.984A4.907,4.907,0,0,0,14.8,2.947Z" transform="translate(235.052 739.053)" fill="#6a6a6a"/>
  </g>
</svg>
