<svg id="like" xmlns="http://www.w3.org/2000/svg" width="12" height="11.503" viewBox="0 0 12 11.503">
  <path id="Path_18" data-name="Path 18" d="M26.1,21.532a.452.452,0,0,1,.007-.065V16.5h0v0a.468.468,0,0,1,.468-.468l.025,0h.886v0a.467.467,0,0,1,.455.464h0v5.079h-.008a.466.466,0,0,1-.448.422v0h-.918a.469.469,0,0,1-.468-.468Z" transform="translate(-26.104 -11.287)" fill="#000" />
  <path id="Path_19" data-name="Path 19" d="M6.3,17.813V11.073a.468.468,0,0,1,.468-.468l.025,0H8.632a.547.547,0,0,1,.1-.117l1.825-3.161,0,0a1.056,1.056,0,0,1,.92-.542,1.068,1.068,0,0,1,1.06,1.076h.011v2.742h2.527v0a.467.467,0,0,1,.455.464h0v5.2h0a.237.237,0,0,1-.068.165h0l-1.8,1.8,0,0a.23.23,0,0,1-.179.05H6.812c-.013,0-.026,0-.04,0a.467.467,0,0,1-.466-.444h0v-.014s0-.007,0-.01,0-.007,0-.01Zm8.677-1.541-.008.009.009-.009Z" transform="translate(-3.534 -6.789)" fill="#000" />
</svg>  